<svg width="1000" height="1000" viewBox="0 0 1000 1000" fill="none" xmlns="http://www.w3.org/2000/svg">
<rect x="15" y="15" width="970" height="970" rx="44" fill="#0A0A0A" stroke="#B20000" stroke-width="30"/>
<path d="M491.975 602.276L382.79 727.949L229.815 662.527L244.456 496.42L406.479 459.183L491.975 602.276Z" fill="#400000" stroke="#400000" stroke-width="38.9647" stroke-linejoin="round"/>
<path d="M508.94 602.232L618.124 727.905L771.1 662.483L756.459 496.376L594.436 459.139L508.94 602.232Z" fill="#400000" stroke="#400000" stroke-width="38.9647" stroke-linejoin="round"/>
<path d="M418.674 424.542L366.975 266.295L501.24 168.835L635.919 266.849L584.89 424.885L418.674 424.542Z" fill="#400000" stroke="#400000" stroke-width="38.9647" stroke-linejoin="round"/>
<path d="M418.268 404.786L366.568 246.539L501.304 148.928L636.275 246.849L584.957 404.977L418.268 404.786Z" fill="#B20000" stroke="#B20000" stroke-width="38.9647" stroke-linejoin="round"/>
<path d="M224.374 634.445L243.271 466.612L406.263 433.807L488.1 581.365L375.687 705.366L224.374 634.445Z" fill="#B20000" stroke="#B20000" stroke-width="39.2358" stroke-linejoin="round"/>
<path d="M774.427 634.212L755.53 466.38L592.538 433.575L510.7 581.132L623.114 705.133L774.427 634.212Z" fill="#B20000" stroke="#B20000" stroke-width="39.2358" stroke-linejoin="round"/>
<path d="M453.001 593V776.878C454.057 777.171 455.118 777.461 456.184 777.747C458.312 778.318 460.474 778.861 462.619 779.418C472.686 781.974 483.115 784.19 493.573 786.365C496.683 787.012 495.291 788.485 492.181 787.838C481.63 785.644 471.11 783.406 460.955 780.827C458.782 780.262 456.591 779.712 454.435 779.133C453.954 779.005 453.479 778.872 453.001 778.741V790.012C454.323 790.444 455.631 790.886 457.001 791.283C462.098 792.758 468.068 794.037 473.818 794.821C479.769 795.633 482.764 795.753 488.94 796.204C496.185 796.63 503.481 796.784 510.774 796.875C512.457 796.894 514.142 796.909 515.827 796.919C516.657 796.922 517.944 796.58 518.32 796.926C518.585 797.171 518.459 797.439 518.235 797.712C518.456 798.002 518.587 798.287 518.291 798.538C517.92 798.854 516.835 798.6 516.006 798.545C506.84 798.636 497.717 799.223 488.702 799.977C485.675 800.23 482.653 800.5 479.654 800.819C477.108 801.089 474.601 801.437 472.074 801.746C474.666 800.119 465.653 802.815 467.196 803.423C467.748 803.639 468.654 803.359 469.36 803.427C471.232 803.609 473.008 803.975 474.876 804.169C481.235 804.83 486.345 805.054 492.847 805.44C495.893 805.586 498.939 805.733 501.985 805.881C505.37 806.044 505.018 807.647 501.633 807.483C498.56 807.335 495.487 807.187 492.415 807.039C486.827 806.707 479.39 806.346 473.851 805.707C471.573 805.444 469.122 805.28 467.171 804.668C463.8 803.612 462.965 802.38 466.147 801.259C467.628 800.737 469.52 800.542 471.207 800.184C473.8 799.869 476.374 799.514 478.986 799.237C482.027 798.915 485.091 798.64 488.16 798.384C489.728 798.253 491.304 798.138 492.878 798.02C491.386 797.952 489.896 797.883 488.408 797.795C481.902 797.315 478.943 797.201 472.665 796.338C466.635 795.508 460.403 794.164 455.062 792.612C454.359 792.408 453.679 792.188 453 791.967V901.712H546.585V593L453.001 593Z" fill="#B20000" stroke="#B20000" stroke-width="13.2423"/>
<path d="M248.497 135.471L748.312 135.397L903.145 626.662L499.022 930.355L94.4276 626.782L248.497 135.471Z" stroke="#B20000" stroke-width="36.5515" stroke-linejoin="round"/>
<path d="M62.7295 71.688C63.9668 71.7307 65.5882 71.7733 67.5935 71.816C69.6415 71.8587 71.6895 71.88 73.7375 71.88C75.8708 71.88 77.9188 71.8587 79.8815 71.816C81.8442 71.7733 83.2308 71.752 84.0415 71.752C88.3935 71.752 91.9775 72.1573 94.7935 72.968C97.6522 73.7787 99.7855 75.016 101.194 76.68C102.602 78.3013 103.306 80.3707 103.306 82.888C103.306 84.4667 102.986 86.0027 102.346 87.496C101.706 88.9893 100.618 90.3547 99.0815 91.592C97.5455 92.7867 95.4335 93.7467 92.7455 94.472C90.1002 95.1547 86.7295 95.496 82.6335 95.496H76.4895V94.216H81.9935C84.1695 94.216 85.8122 93.7467 86.9215 92.808C88.0735 91.8267 88.8415 90.5467 89.2255 88.968C89.6522 87.3467 89.8655 85.5547 89.8655 83.592C89.8655 80.2213 89.3962 77.6187 88.4575 75.784C87.5615 73.9067 85.9828 72.968 83.7215 72.968C82.2708 72.968 81.3322 73.3307 80.9055 74.056C80.4788 74.7813 80.2655 76.2533 80.2655 78.472V110.216C80.2655 111.752 80.3722 112.904 80.5855 113.672C80.8415 114.44 81.2895 114.952 81.9295 115.208C82.5695 115.464 83.5295 115.635 84.8095 115.72V117C83.5722 116.915 81.9722 116.872 80.0095 116.872C78.0895 116.829 76.1268 116.808 74.1215 116.808C71.8175 116.808 69.6415 116.829 67.5935 116.872C65.5882 116.872 63.9668 116.915 62.7295 117V115.72C64.0522 115.635 65.0335 115.464 65.6735 115.208C66.3135 114.952 66.7402 114.44 66.9535 113.672C67.1668 112.904 67.2735 111.752 67.2735 110.216V78.472C67.2735 76.8933 67.1668 75.7413 66.9535 75.016C66.7402 74.248 66.2922 73.736 65.6095 73.48C64.9695 73.1813 64.0095 73.0107 62.7295 72.968V71.688ZM76.1055 94.408C77.6415 94.4507 79.0922 94.536 80.4575 94.664C81.8228 94.792 83.0815 94.92 84.2335 95.048C85.3855 95.1333 86.3668 95.1973 87.1775 95.24C91.7428 95.4533 95.1562 96.2427 97.4175 97.608C99.7215 98.9733 101.13 100.979 101.642 103.624L102.986 110.28C103.327 111.859 103.711 112.947 104.138 113.544C104.564 114.141 105.14 114.44 105.866 114.44C106.292 114.44 106.655 114.376 106.954 114.248C107.252 114.12 107.551 113.907 107.85 113.608L108.682 114.44C107.359 115.763 105.908 116.659 104.33 117.128C102.794 117.64 101.044 117.896 99.0815 117.896C96.3082 117.896 94.0682 117.405 92.3615 116.424C90.6548 115.4 89.6095 113.587 89.2255 110.984L88.2655 104.584C88.0095 102.835 87.6895 101.277 87.3055 99.912C86.9215 98.5467 86.4095 97.48 85.7695 96.712C85.1295 95.9013 84.2548 95.496 83.1455 95.496H76.2335L76.1055 94.408ZM102.099 156.688C101.929 158.821 101.801 160.891 101.715 162.896C101.673 164.859 101.651 166.373 101.651 167.44C101.651 168.336 101.673 169.189 101.715 170C101.758 170.811 101.801 171.493 101.843 172.048H100.371C99.6459 168.507 98.6433 165.733 97.3633 163.728C96.0833 161.68 94.6753 160.251 93.1393 159.44C91.6459 158.587 90.1313 158.16 88.5953 158.16H87.7633C86.6539 158.16 85.8219 158.267 85.2673 158.48C84.7126 158.651 84.3286 159.013 84.1153 159.568C83.9446 160.123 83.8593 160.997 83.8593 162.192V194.576C83.8593 196.283 84.0299 197.584 84.3713 198.48C84.7553 199.333 85.4593 199.888 86.4833 200.144C87.5073 200.4 89.0006 200.528 90.9633 200.528V202C89.5126 201.957 87.6139 201.915 85.2673 201.872C82.9206 201.829 80.4246 201.808 77.7793 201.808C75.8166 201.808 73.8539 201.829 71.8913 201.872C69.9286 201.915 68.0726 201.957 66.3233 202V200.72C67.6459 200.635 68.6273 200.464 69.2673 200.208C69.9073 199.952 70.3339 199.44 70.5473 198.672C70.7606 197.904 70.8673 196.752 70.8673 195.216V163.472C70.8673 161.893 70.7606 160.741 70.5473 160.016C70.3339 159.248 69.8859 158.736 69.2033 158.48C68.5633 158.181 67.6033 158.011 66.3233 157.968V156.688C68.2006 156.731 70.1846 156.773 72.2753 156.816C74.4086 156.816 76.4993 156.837 78.5473 156.88C80.6379 156.88 82.5579 156.88 84.3073 156.88C86.0993 156.88 87.5713 156.88 88.7233 156.88C90.6859 156.88 92.9046 156.88 95.3793 156.88C97.8966 156.837 100.137 156.773 102.099 156.688ZM92.8193 178.576C92.8193 178.576 92.8193 178.789 92.8193 179.216C92.8193 179.643 92.8193 179.856 92.8193 179.856H81.9393C81.9393 179.856 81.9393 179.643 81.9393 179.216C81.9393 178.789 81.9393 178.576 81.9393 178.576H92.8193ZM94.6753 170.128C94.5046 172.56 94.4193 174.416 94.4193 175.696C94.4619 176.976 94.4833 178.149 94.4833 179.216C94.4833 180.283 94.5046 181.456 94.5473 182.736C94.5899 184.016 94.6966 185.872 94.8673 188.304H93.3953C93.1393 186.725 92.6059 185.296 91.7953 184.016C91.0273 182.736 90.0246 181.733 88.7873 181.008C87.5499 180.24 86.1206 179.856 84.4993 179.856V178.576C85.6939 178.576 86.7819 178.32 87.7633 177.808C88.7446 177.296 89.5979 176.613 90.3233 175.76C91.0913 174.907 91.7099 173.989 92.1793 173.008C92.6913 172.027 93.0326 171.067 93.2033 170.128H94.6753ZM87.5585 240.792C90.3745 240.792 92.6785 241.219 94.4705 242.072C96.3052 242.883 97.9265 243.843 99.3345 244.952C100.188 245.592 100.828 245.677 101.255 245.208C101.724 244.696 102.044 243.523 102.215 241.688H103.687C103.601 243.395 103.537 245.485 103.495 247.96C103.452 250.392 103.431 253.635 103.431 257.688H101.959C101.788 255.64 101.511 253.827 101.127 252.248C100.743 250.627 100.167 249.197 99.3985 247.96C98.6305 246.723 97.5212 245.635 96.0705 244.696C95.1745 244.099 94.2145 243.629 93.1905 243.288C92.2092 242.947 91.1852 242.776 90.1185 242.776C87.6865 242.776 85.6812 243.459 84.1025 244.824C82.5238 246.147 81.2865 247.896 80.3905 250.072C79.5372 252.205 78.9398 254.552 78.5985 257.112C78.2572 259.629 78.0865 262.083 78.0865 264.472C78.0865 266.861 78.2572 269.336 78.5985 271.896C78.9398 274.413 79.5372 276.76 80.3905 278.936C81.2865 281.069 82.5238 282.819 84.1025 284.184C85.6812 285.507 87.6865 286.168 90.1185 286.168C91.1852 286.168 92.2092 285.997 93.1905 285.656C94.2145 285.272 95.1745 284.803 96.0705 284.248C98.2038 282.925 99.6332 281.155 100.359 278.936C101.127 276.717 101.66 273.859 101.959 270.36H103.431C103.431 274.541 103.452 277.933 103.495 280.536C103.537 283.096 103.601 285.251 103.687 287H102.215C102.044 285.165 101.745 284.013 101.319 283.544C100.935 283.075 100.273 283.139 99.3345 283.736C97.7558 284.845 96.0705 285.827 94.2785 286.68C92.5292 287.491 90.2678 287.896 87.4945 287.896C82.6732 287.896 78.4492 286.979 74.8225 285.144C71.1958 283.309 68.3798 280.664 66.3745 277.208C64.3692 273.752 63.3665 269.592 63.3665 264.728C63.3665 259.949 64.3905 255.768 66.4385 252.184C68.5292 248.6 71.3878 245.805 75.0145 243.8C78.6412 241.795 82.8225 240.792 87.5585 240.792Z" fill="white"/>
</svg>
