<svg width="342" height="261" viewBox="0 0 342 261" fill="none" xmlns="http://www.w3.org/2000/svg">
<path d="M122.805 224.889L211.305 130.646H340.588C340.491 155.738 333.106 180.266 319.326 201.244C305.454 222.362 285.708 238.96 262.519 248.995C239.331 259.029 213.714 262.061 188.824 257.717C164.098 253.402 141.163 241.995 122.805 224.889Z" fill="#FF0000" stroke="black"/>
<path d="M210.422 130.125L122.076 224.204C108.852 211.69 98.4148 196.527 91.4462 179.703C84.4138 162.725 81.0753 144.445 81.6525 126.078C82.2297 107.71 86.7095 89.676 94.7941 73.1734C102.805 56.8204 114.174 42.3426 128.158 30.6835L210.422 130.125Z" fill="#9A0000" stroke="black"/>
<path d="M234.863 2.84657L210.797 129.008L128.928 30.0461C143.531 18.0602 160.581 9.41321 178.883 4.71399C197.186 0.0147723 216.292 -0.621746 234.863 2.84657Z" fill="#7B0000" stroke="black"/>
<path d="M320.16 60.3343L211.796 129.104L235.845 3.03393C253.043 6.38345 269.384 13.1884 283.878 23.0386C298.373 32.8887 310.715 45.5772 320.16 60.3343Z" fill="#440000" stroke="black"/>
<path d="M340.588 129.645H212.81L320.696 61.1786C333.602 81.69 340.494 105.412 340.588 129.645Z" fill="black" stroke="black"/>
<path d="M44 2H30C28.3431 2 27 3.34315 27 5V19C27 20.6569 28.3431 22 30 22H44C45.6569 22 47 20.6569 47 19V5C47 3.34315 45.6569 2 44 2Z" fill="#FF0000"/>
<path d="M17 18.2C15.8933 18.2 15.04 17.9067 14.44 17.32C13.8533 16.72 13.56 15.86 13.56 14.74V13.5C13.56 12.8067 13.6733 12.2267 13.9 11.76C14.1267 11.28 14.4933 10.9067 15 10.64V10.6C14.5333 10.3467 14.1867 10 13.96 9.56C13.7467 9.10667 13.64 8.53333 13.64 7.84V7.26C13.64 6.14 13.9267 5.28667 14.5 4.7C15.0867 4.1 15.92 3.8 17 3.8C18.08 3.8 18.9067 4.1 19.48 4.7C20.0667 5.28667 20.36 6.14 20.36 7.26V7.84C20.36 9.17333 19.9067 10.0933 19 10.6V10.64C19.5067 10.9067 19.8733 11.28 20.1 11.76C20.3267 12.2267 20.44 12.8067 20.44 13.5V14.74C20.44 15.86 20.14 16.72 19.54 17.32C18.9533 17.9067 18.1067 18.2 17 18.2ZM17 9.7C17.7733 9.7 18.16 9.23333 18.16 8.3V7.2C18.16 6.26667 17.7733 5.8 17 5.8C16.2267 5.8 15.84 6.26667 15.84 7.2V8.3C15.84 9.23333 16.2267 9.7 17 9.7ZM17 16.2C17.8267 16.2 18.24 15.6733 18.24 14.62V13.28C18.24 12.2267 17.8267 11.7 17 11.7C16.1733 11.7 15.76 12.2267 15.76 13.28V14.62C15.76 15.6733 16.1733 16.2 17 16.2Z" fill="black"/>
<path d="M44 27H30C28.3431 27 27 28.3431 27 30V44C27 45.6569 28.3431 47 30 47H44C45.6569 47 47 45.6569 47 44V30C47 28.3431 45.6569 27 44 27Z" fill="#9A0000"/>
<path d="M17.06 44.2C15.98 44.2 15.1533 43.8933 14.58 43.28C14.0067 42.6667 13.72 41.8 13.72 40.68V33.44C13.72 31.0133 14.84 29.8 17.08 29.8C18.1467 29.8 18.96 30.1067 19.52 30.72C20.08 31.32 20.36 32.1867 20.36 33.32V33.58H18.28V33.18C18.28 32.26 17.9 31.8 17.14 31.8C16.7267 31.8 16.42 31.9267 16.22 32.18C16.02 32.4333 15.92 32.88 15.92 33.52V36.2H15.96C16.3467 35.3867 17.0133 34.98 17.96 34.98C18.76 34.98 19.3667 35.2533 19.78 35.8C20.1933 36.3467 20.4 37.14 20.4 38.18V40.68C20.4 41.8 20.1133 42.6667 19.54 43.28C18.9667 43.8933 18.14 44.2 17.06 44.2ZM17.06 42.2C17.82 42.2 18.2 41.7467 18.2 40.84V38.36C18.2 37.44 17.82 36.98 17.06 36.98C16.3 36.98 15.92 37.44 15.92 38.36V40.84C15.92 41.7467 16.3 42.2 17.06 42.2Z" fill="black"/>
<path d="M44 52H30C28.3431 52 27 53.3431 27 55V69C27 70.6569 28.3431 72 30 72H44C45.6569 72 47 70.6569 47 69V55C47 53.3431 45.6569 52 44 52Z" fill="#7B0000"/>
<path d="M16.94 68.2C15.86 68.2 15.04 67.9 14.48 67.3C13.9333 66.7 13.66 65.84 13.66 64.72V63.58H15.74V64.82C15.74 65.74 16.12 66.2 16.88 66.2C17.2533 66.2 17.5333 66.0867 17.72 65.86C17.92 65.62 18.02 65.2067 18.02 64.62V63.48C18.02 62.84 17.9067 62.3867 17.68 62.12C17.4533 61.84 17.0867 61.7 16.58 61.7H15.84V59.7H16.64C17.08 59.7 17.4067 59.5867 17.62 59.36C17.8467 59.1333 17.96 58.7533 17.96 58.22V57.2C17.96 56.72 17.86 56.3667 17.66 56.14C17.46 55.9133 17.1933 55.8 16.86 55.8C16.1533 55.8 15.8 56.2333 15.8 57.1V58.02H13.72V57.28C13.72 56.16 13.9933 55.3 14.54 54.7C15.1 54.1 15.9 53.8 16.94 53.8C17.9933 53.8 18.7933 54.1 19.34 54.7C19.8867 55.2867 20.16 56.14 20.16 57.26V57.76C20.16 58.52 20.0333 59.1333 19.78 59.6C19.5267 60.0533 19.1333 60.38 18.6 60.58V60.62C19.1733 60.8333 19.5867 61.18 19.84 61.66C20.0933 62.14 20.22 62.7533 20.22 63.5V64.74C20.22 65.86 19.94 66.72 19.38 67.32C18.8333 67.9067 18.02 68.2 16.94 68.2Z" fill="black"/>
<path d="M44 77H30C28.3431 77 27 78.3431 27 80V94C27 95.6569 28.3431 97 30 97H44C45.6569 97 47 95.6569 47 94V80C47 78.3431 45.6569 77 44 77Z" fill="#440000"/>
<path d="M16.94 93.2C15.86 93.2 15.04 92.9 14.48 92.3C13.9333 91.7 13.66 90.84 13.66 89.72V88.58H15.74V89.82C15.74 90.74 16.12 91.2 16.88 91.2C17.2533 91.2 17.5333 91.0867 17.72 90.86C17.92 90.62 18.02 90.2067 18.02 89.62V88.48C18.02 87.84 17.9067 87.3867 17.68 87.12C17.4533 86.84 17.0867 86.7 16.58 86.7H15.84V84.7H16.64C17.08 84.7 17.4067 84.5867 17.62 84.36C17.8467 84.1333 17.96 83.7533 17.96 83.22V82.2C17.96 81.72 17.86 81.3667 17.66 81.14C17.46 80.9133 17.1933 80.8 16.86 80.8C16.1533 80.8 15.8 81.2333 15.8 82.1V83.02H13.72V82.28C13.72 81.16 13.9933 80.3 14.54 79.7C15.1 79.1 15.9 78.8 16.94 78.8C17.9933 78.8 18.7933 79.1 19.34 79.7C19.8867 80.2867 20.16 81.14 20.16 82.26V82.76C20.16 83.52 20.0333 84.1333 19.78 84.6C19.5267 85.0533 19.1333 85.38 18.6 85.58V85.62C19.1733 85.8333 19.5867 86.18 19.84 86.66C20.0933 87.14 20.22 87.7533 20.22 88.5V89.74C20.22 90.86 19.94 91.72 19.38 92.32C18.8333 92.9067 18.02 93.2 16.94 93.2Z" fill="black"/>
<path d="M44 102H30C28.3431 102 27 103.343 27 105V119C27 120.657 28.3431 122 30 122H44C45.6569 122 47 120.657 47 119V105C47 103.343 45.6569 102 44 102Z" fill="black"/>
<path d="M14.2761 116.48C14.2761 115.48 14.4361 114.627 14.7561 113.92C15.0761 113.2 15.6494 112.407 16.4761 111.54C17.2894 110.673 17.8494 109.933 18.1561 109.32C18.4761 108.707 18.6361 108.067 18.6361 107.4C18.6361 106.8 18.5361 106.387 18.3361 106.16C18.1494 105.92 17.8694 105.8 17.4961 105.8C16.7361 105.8 16.3561 106.26 16.3561 107.18V108.68H14.2761V107.32C14.2761 106.187 14.5561 105.32 15.1161 104.72C15.6761 104.107 16.4894 103.8 17.5561 103.8C18.6228 103.8 19.4361 104.107 19.9961 104.72C20.5561 105.32 20.8361 106.187 20.8361 107.32C20.8361 108.173 20.6294 109.007 20.2161 109.82C19.8161 110.633 19.1161 111.567 18.1161 112.62C17.4628 113.313 17.0228 113.88 16.7961 114.32C16.5694 114.747 16.4561 115.207 16.4561 115.7V116H20.6361V118H14.2761V116.48Z" fill="black"/>
<path d="M195.312 203.22C194.153 203.22 193.266 202.89 192.65 202.23C192.049 201.57 191.748 200.639 191.748 199.436V191.164C191.748 189.961 192.049 189.03 192.65 188.37C193.266 187.71 194.153 187.38 195.312 187.38C196.471 187.38 197.351 187.71 197.952 188.37C198.568 189.03 198.876 189.961 198.876 191.164V192.792H196.588V191.01C196.588 190.057 196.185 189.58 195.378 189.58C194.571 189.58 194.168 190.057 194.168 191.01V199.612C194.168 200.551 194.571 201.02 195.378 201.02C196.185 201.02 196.588 200.551 196.588 199.612V197.258H198.876V199.436C198.876 200.639 198.568 201.57 197.952 202.23C197.351 202.89 196.471 203.22 195.312 203.22ZM203.865 203.22C202.677 203.22 201.768 202.883 201.137 202.208C200.506 201.533 200.191 200.58 200.191 199.348V191.252C200.191 190.02 200.506 189.067 201.137 188.392C201.768 187.717 202.677 187.38 203.865 187.38C205.053 187.38 205.962 187.717 206.593 188.392C207.224 189.067 207.539 190.02 207.539 191.252V199.348C207.539 200.58 207.224 201.533 206.593 202.208C205.962 202.883 205.053 203.22 203.865 203.22ZM203.865 201.02C204.701 201.02 205.119 200.514 205.119 199.502V191.098C205.119 190.086 204.701 189.58 203.865 189.58C203.029 189.58 202.611 190.086 202.611 191.098V199.502C202.611 200.514 203.029 201.02 203.865 201.02ZM209.175 187.6H212.211L214.565 196.818H214.609V187.6H216.765V203H214.279L211.375 191.758H211.331V203H209.175V187.6ZM221.974 203.22C220.815 203.22 219.928 202.89 219.312 202.23C218.711 201.57 218.41 200.639 218.41 199.436V191.164C218.41 189.961 218.711 189.03 219.312 188.37C219.928 187.71 220.815 187.38 221.974 187.38C223.133 187.38 224.013 187.71 224.614 188.37C225.23 189.03 225.538 189.961 225.538 191.164V192.792H223.25V191.01C223.25 190.057 222.847 189.58 222.04 189.58C221.233 189.58 220.83 190.057 220.83 191.01V199.612C220.83 200.551 221.233 201.02 222.04 201.02C222.847 201.02 223.25 200.551 223.25 199.612V197.258H225.538V199.436C225.538 200.639 225.23 201.57 224.614 202.23C224.013 202.89 223.133 203.22 221.974 203.22ZM226.986 187.6H233.586V189.8H229.406V193.87H232.728V196.07H229.406V200.8H233.586V203H226.986V187.6ZM234.978 187.6H238.542C239.745 187.6 240.647 187.923 241.248 188.568C241.85 189.213 242.15 190.159 242.15 191.406V192.924C242.15 194.171 241.85 195.117 241.248 195.762C240.647 196.407 239.745 196.73 238.542 196.73H237.398V203H234.978V187.6ZM238.542 194.53C238.938 194.53 239.232 194.42 239.422 194.2C239.628 193.98 239.73 193.606 239.73 193.078V191.252C239.73 190.724 239.628 190.35 239.422 190.13C239.232 189.91 238.938 189.8 238.542 189.8H237.398V194.53H238.542ZM245.399 189.8H242.869V187.6H250.349V189.8H247.819V203H245.399V189.8ZM251.521 187.6H253.941V203H251.521V187.6ZM259.252 203.22C258.064 203.22 257.154 202.883 256.524 202.208C255.893 201.533 255.578 200.58 255.578 199.348V191.252C255.578 190.02 255.893 189.067 256.524 188.392C257.154 187.717 258.064 187.38 259.252 187.38C260.44 187.38 261.349 187.717 261.98 188.392C262.61 189.067 262.926 190.02 262.926 191.252V199.348C262.926 200.58 262.61 201.533 261.98 202.208C261.349 202.883 260.44 203.22 259.252 203.22ZM259.252 201.02C260.088 201.02 260.506 200.514 260.506 199.502V191.098C260.506 190.086 260.088 189.58 259.252 189.58C258.416 189.58 257.998 190.086 257.998 191.098V199.502C257.998 200.514 258.416 201.02 259.252 201.02ZM264.562 187.6H267.598L269.952 196.818H269.996V187.6H272.152V203H269.666L266.762 191.758H266.718V203H264.562V187.6Z" fill="white"/>
<path d="M107.171 110.3H110.573C111.721 110.3 112.582 110.608 113.156 111.224C113.73 111.84 114.017 112.743 114.017 113.933V115.382C114.017 116.572 113.73 117.475 113.156 118.091C112.582 118.707 111.721 119.015 110.573 119.015H109.481V125H107.171V110.3ZM110.573 116.915C110.951 116.915 111.231 116.81 111.413 116.6C111.609 116.39 111.707 116.033 111.707 115.529V113.786C111.707 113.282 111.609 112.925 111.413 112.715C111.231 112.505 110.951 112.4 110.573 112.4H109.481V116.915H110.573ZM115.272 110.3H118.695C119.885 110.3 120.753 110.58 121.299 111.14C121.845 111.686 122.118 112.533 122.118 113.681V114.584C122.118 116.11 121.614 117.076 120.606 117.482V117.524C121.166 117.692 121.558 118.035 121.782 118.553C122.02 119.071 122.139 119.764 122.139 120.632V123.215C122.139 123.635 122.153 123.978 122.181 124.244C122.209 124.496 122.279 124.748 122.391 125H120.039C119.955 124.762 119.899 124.538 119.871 124.328C119.843 124.118 119.829 123.74 119.829 123.194V120.506C119.829 119.834 119.717 119.365 119.493 119.099C119.283 118.833 118.912 118.7 118.38 118.7H117.582V125H115.272V110.3ZM118.422 116.6C118.884 116.6 119.227 116.481 119.451 116.243C119.689 116.005 119.808 115.606 119.808 115.046V113.912C119.808 113.38 119.71 112.995 119.514 112.757C119.332 112.519 119.038 112.4 118.632 112.4H117.582V116.6H118.422ZM127.08 125.21C125.946 125.21 125.078 124.888 124.476 124.244C123.874 123.6 123.573 122.69 123.573 121.514V113.786C123.573 112.61 123.874 111.7 124.476 111.056C125.078 110.412 125.946 110.09 127.08 110.09C128.214 110.09 129.082 110.412 129.684 111.056C130.286 111.7 130.587 112.61 130.587 113.786V121.514C130.587 122.69 130.286 123.6 129.684 124.244C129.082 124.888 128.214 125.21 127.08 125.21ZM127.08 123.11C127.878 123.11 128.277 122.627 128.277 121.661V113.639C128.277 112.673 127.878 112.19 127.08 112.19C126.282 112.19 125.883 112.673 125.883 113.639V121.661C125.883 122.627 126.282 123.11 127.08 123.11ZM135.426 125.21C134.306 125.21 133.452 124.895 132.864 124.265C132.276 123.621 131.982 122.704 131.982 121.514V113.786C131.982 112.596 132.276 111.686 132.864 111.056C133.452 110.412 134.306 110.09 135.426 110.09C136.546 110.09 137.4 110.412 137.988 111.056C138.576 111.686 138.87 112.596 138.87 113.786V115.046H136.686V113.639C136.686 112.673 136.287 112.19 135.489 112.19C134.691 112.19 134.292 112.673 134.292 113.639V121.682C134.292 122.634 134.691 123.11 135.489 123.11C136.287 123.11 136.686 122.634 136.686 121.682V118.805H135.531V116.705H138.87V121.514C138.87 122.704 138.576 123.621 137.988 124.265C137.4 124.895 136.546 125.21 135.426 125.21ZM140.353 110.3H143.776C144.966 110.3 145.834 110.58 146.38 111.14C146.926 111.686 147.199 112.533 147.199 113.681V114.584C147.199 116.11 146.695 117.076 145.687 117.482V117.524C146.247 117.692 146.639 118.035 146.863 118.553C147.101 119.071 147.22 119.764 147.22 120.632V123.215C147.22 123.635 147.234 123.978 147.262 124.244C147.29 124.496 147.36 124.748 147.472 125H145.12C145.036 124.762 144.98 124.538 144.952 124.328C144.924 124.118 144.91 123.74 144.91 123.194V120.506C144.91 119.834 144.798 119.365 144.574 119.099C144.364 118.833 143.993 118.7 143.461 118.7H142.663V125H140.353V110.3ZM143.503 116.6C143.965 116.6 144.308 116.481 144.532 116.243C144.77 116.005 144.889 115.606 144.889 115.046V113.912C144.889 113.38 144.791 112.995 144.595 112.757C144.413 112.519 144.119 112.4 143.713 112.4H142.663V116.6H143.503ZM150.607 110.3H153.736L156.13 125H153.82L153.4 122.081V122.123H150.775L150.355 125H148.213L150.607 110.3ZM153.127 120.128L152.098 112.862H152.056L151.048 120.128H153.127ZM157.251 110.3H160.548L162.018 120.821H162.06L163.53 110.3H166.827V125H164.643V113.87H164.601L162.921 125H160.989L159.309 113.87H159.267V125H157.251V110.3ZM113.949 135.3H117.246L118.716 145.821H118.758L120.228 135.3H123.525V150H121.341V138.87H121.299L119.619 150H117.687L116.007 138.87H115.965V150H113.949V135.3ZM127.034 135.3H130.163L132.557 150H130.247L129.827 147.081V147.123H127.202L126.782 150H124.64L127.034 135.3ZM129.554 145.128L128.525 137.862H128.483L127.475 145.128H129.554ZM134.52 137.4H132.105V135.3H139.245V137.4H136.83V150H134.52V137.4ZM140.363 135.3H142.673V150H140.363V135.3ZM147.742 150.21C146.608 150.21 145.74 149.888 145.138 149.244C144.536 148.6 144.235 147.69 144.235 146.514V138.786C144.235 137.61 144.536 136.7 145.138 136.056C145.74 135.412 146.608 135.09 147.742 135.09C148.876 135.09 149.744 135.412 150.346 136.056C150.948 136.7 151.249 137.61 151.249 138.786V146.514C151.249 147.69 150.948 148.6 150.346 149.244C149.744 149.888 148.876 150.21 147.742 150.21ZM147.742 148.11C148.54 148.11 148.939 147.627 148.939 146.661V138.639C148.939 137.673 148.54 137.19 147.742 137.19C146.944 137.19 146.545 137.673 146.545 138.639V146.661C146.545 147.627 146.944 148.11 147.742 148.11ZM152.811 135.3H155.709L157.956 144.099H157.998V135.3H160.056V150H157.683L154.911 139.269H154.869V150H152.811V135.3Z" fill="white"/>
<path d="M166.323 48.2C165.256 48.2 164.443 47.9 163.883 47.3C163.323 46.6867 163.043 45.8133 163.043 44.68V37.32C163.043 36.1867 163.323 35.32 163.883 34.72C164.443 34.1067 165.256 33.8 166.323 33.8C167.389 33.8 168.203 34.1067 168.763 34.72C169.323 35.32 169.603 36.1867 169.603 37.32V38.52H167.523V37.18C167.523 36.26 167.143 35.8 166.383 35.8C165.623 35.8 165.243 36.26 165.243 37.18V44.84C165.243 45.7467 165.623 46.2 166.383 46.2C167.143 46.2 167.523 45.7467 167.523 44.84V42.1H166.423V40.1H169.603V44.68C169.603 45.8133 169.323 46.6867 168.763 47.3C168.203 47.9 167.389 48.2 166.323 48.2ZM171.015 34H177.015V36H173.215V39.7H176.235V41.7H173.215V46H177.015V48H171.015V34ZM181.18 48.2C180.113 48.2 179.307 47.9 178.76 47.3C178.213 46.6867 177.94 45.8133 177.94 44.68V43.88H180.02V44.84C180.02 45.7467 180.4 46.2 181.16 46.2C181.533 46.2 181.813 46.0933 182 45.88C182.2 45.6533 182.3 45.2933 182.3 44.8C182.3 44.2133 182.167 43.7 181.9 43.26C181.633 42.8067 181.14 42.2667 180.42 41.64C179.513 40.84 178.88 40.12 178.52 39.48C178.16 38.8267 177.98 38.0933 177.98 37.28C177.98 36.1733 178.26 35.32 178.82 34.72C179.38 34.1067 180.193 33.8 181.26 33.8C182.313 33.8 183.107 34.1067 183.64 34.72C184.187 35.32 184.46 36.1867 184.46 37.32V37.9H182.38V37.18C182.38 36.7 182.287 36.3533 182.1 36.14C181.913 35.9133 181.64 35.8 181.28 35.8C180.547 35.8 180.18 36.2467 180.18 37.14C180.18 37.6467 180.313 38.12 180.58 38.56C180.86 39 181.36 39.5333 182.08 40.16C183 40.96 183.633 41.6867 183.98 42.34C184.327 42.9933 184.5 43.76 184.5 44.64C184.5 45.7867 184.213 46.6667 183.64 47.28C183.08 47.8933 182.26 48.2 181.18 48.2ZM187.481 36H185.181V34H191.981V36H189.681V48H187.481V36ZM193.047 34H195.247V48H193.047V34ZM200.074 48.2C198.994 48.2 198.168 47.8933 197.594 47.28C197.021 46.6667 196.734 45.8 196.734 44.68V37.32C196.734 36.2 197.021 35.3333 197.594 34.72C198.168 34.1067 198.994 33.8 200.074 33.8C201.154 33.8 201.981 34.1067 202.554 34.72C203.128 35.3333 203.414 36.2 203.414 37.32V44.68C203.414 45.8 203.128 46.6667 202.554 47.28C201.981 47.8933 201.154 48.2 200.074 48.2ZM200.074 46.2C200.834 46.2 201.214 45.74 201.214 44.82V37.18C201.214 36.26 200.834 35.8 200.074 35.8C199.314 35.8 198.934 36.26 198.934 37.18V44.82C198.934 45.74 199.314 46.2 200.074 46.2ZM204.902 34H207.662L209.802 42.38H209.842V34H211.802V48H209.542L206.902 37.78H206.862V48H204.902V34Z" fill="white"/>
<path d="M240.322 50.7H243.514C244.553 50.7 245.332 50.9787 245.851 51.536C246.371 52.0933 246.63 52.9103 246.63 53.987V60.713C246.63 61.7897 246.371 62.6067 245.851 63.164C245.332 63.7213 244.553 64 243.514 64H240.322V50.7ZM243.476 62.1C243.818 62.1 244.078 61.9987 244.255 61.796C244.445 61.5933 244.54 61.264 244.54 60.808V53.892C244.54 53.436 244.445 53.1067 244.255 52.904C244.078 52.7013 243.818 52.6 243.476 52.6H242.412V62.1H243.476ZM248.041 50.7H253.741V52.6H250.131V56.115H253V58.015H250.131V62.1H253.741V64H248.041V50.7ZM257.698 64.19C256.684 64.19 255.918 63.905 255.399 63.335C254.879 62.7523 254.62 61.9227 254.62 60.846V60.086H256.596V60.998C256.596 61.8593 256.957 62.29 257.679 62.29C258.033 62.29 258.299 62.1887 258.477 61.986C258.667 61.7707 258.762 61.4287 258.762 60.96C258.762 60.4027 258.635 59.915 258.382 59.497C258.128 59.0663 257.66 58.5533 256.976 57.958C256.114 57.198 255.513 56.514 255.171 55.906C254.829 55.2853 254.658 54.5887 254.658 53.816C254.658 52.7647 254.924 51.954 255.456 51.384C255.988 50.8013 256.76 50.51 257.774 50.51C258.774 50.51 259.528 50.8013 260.035 51.384C260.554 51.954 260.814 52.7773 260.814 53.854V54.405H258.838V53.721C258.838 53.265 258.749 52.9357 258.572 52.733C258.394 52.5177 258.135 52.41 257.793 52.41C257.096 52.41 256.748 52.8343 256.748 53.683C256.748 54.1643 256.874 54.614 257.128 55.032C257.394 55.45 257.869 55.9567 258.553 56.552C259.427 57.312 260.028 58.0023 260.358 58.623C260.687 59.2437 260.852 59.972 260.852 60.808C260.852 61.8973 260.579 62.7333 260.035 63.316C259.503 63.8987 258.724 64.19 257.698 64.19ZM262.05 50.7H264.14V64H262.05V50.7ZM268.669 64.19C267.656 64.19 266.883 63.905 266.351 63.335C265.819 62.7523 265.553 61.9227 265.553 60.846V53.854C265.553 52.7773 265.819 51.954 266.351 51.384C266.883 50.8013 267.656 50.51 268.669 50.51C269.683 50.51 270.455 50.8013 270.987 51.384C271.519 51.954 271.785 52.7773 271.785 53.854V54.994H269.809V53.721C269.809 52.847 269.448 52.41 268.726 52.41C268.004 52.41 267.643 52.847 267.643 53.721V60.998C267.643 61.8593 268.004 62.29 268.726 62.29C269.448 62.29 269.809 61.8593 269.809 60.998V58.395H268.764V56.495H271.785V60.846C271.785 61.9227 271.519 62.7523 270.987 63.335C270.455 63.905 269.683 64.19 268.669 64.19ZM273.127 50.7H275.749L277.782 58.661H277.82V50.7H279.682V64H277.535L275.027 54.291H274.989V64H273.127V50.7Z" fill="white"/>
<path d="M266.291 101.4H269.117L270.377 110.418H270.413L271.673 101.4H274.499V114H272.627V104.46H272.591L271.151 114H269.495L268.055 104.46H268.019V114H266.291V101.4ZM277.506 101.4H280.188L282.24 114H280.26L279.9 111.498V111.534H277.65L277.29 114H275.454L277.506 101.4ZM279.666 109.824L278.784 103.596H278.748L277.884 109.824H279.666ZM283.201 101.4H286.135C287.155 101.4 287.899 101.64 288.367 102.12C288.835 102.588 289.069 103.314 289.069 104.298V105.072C289.069 106.38 288.637 107.208 287.773 107.556V107.592C288.253 107.736 288.589 108.03 288.781 108.474C288.985 108.918 289.087 109.512 289.087 110.256V112.47C289.087 112.83 289.099 113.124 289.123 113.352C289.147 113.568 289.207 113.784 289.303 114H287.287C287.215 113.796 287.167 113.604 287.143 113.424C287.119 113.244 287.107 112.92 287.107 112.452V110.148C287.107 109.572 287.011 109.17 286.819 108.942C286.639 108.714 286.321 108.6 285.865 108.6H285.181V114H283.201V101.4ZM285.901 106.8C286.297 106.8 286.591 106.698 286.783 106.494C286.987 106.29 287.089 105.948 287.089 105.468V104.496C287.089 104.04 287.005 103.71 286.837 103.506C286.681 103.302 286.429 103.2 286.081 103.2H285.181V106.8H285.901ZM290.461 101.4H292.441V106.71L294.961 101.4H296.941L294.583 106.026L296.977 114H294.907L293.233 108.384L292.441 109.986V114H290.461V101.4ZM297.914 101.4H303.314V103.2H299.894V106.53H302.612V108.33H299.894V112.2H303.314V114H297.914V101.4ZM306.001 103.2H303.931V101.4H310.051V103.2H307.981V114H306.001V103.2ZM311.009 101.4H312.989V114H311.009V101.4ZM314.472 101.4H316.956L318.882 108.942H318.918V101.4H320.682V114H318.648L316.272 104.802H316.236V114H314.472V101.4ZM324.962 114.18C324.002 114.18 323.27 113.91 322.766 113.37C322.262 112.818 322.01 112.032 322.01 111.012V104.388C322.01 103.368 322.262 102.588 322.766 102.048C323.27 101.496 324.002 101.22 324.962 101.22C325.922 101.22 326.654 101.496 327.158 102.048C327.662 102.588 327.914 103.368 327.914 104.388V105.468H326.042V104.262C326.042 103.434 325.7 103.02 325.016 103.02C324.332 103.02 323.99 103.434 323.99 104.262V111.156C323.99 111.972 324.332 112.38 325.016 112.38C325.7 112.38 326.042 111.972 326.042 111.156V108.69H325.052V106.89H327.914V111.012C327.914 112.032 327.662 112.818 327.158 113.37C326.654 113.91 325.922 114.18 324.962 114.18Z" fill="white"/>
</svg>
