<svg width="689" height="1241" viewBox="0 0 689 1241" fill="none" xmlns="http://www.w3.org/2000/svg">
<path d="M335.975 475.925L226.79 601.473L73.8152 536.116L88.4558 370.175L250.479 332.976L335.975 475.925Z" fill="#B20000" stroke="#B20000" stroke-width="38.9647" stroke-linejoin="round"/>
<path d="M352.94 475.881L462.124 601.429L615.1 536.072L600.459 370.131L438.436 332.931L352.94 475.881Z" fill="#B20000" stroke="#B20000" stroke-width="38.9647" stroke-linejoin="round"/>
<path d="M262.674 298.369L210.975 140.28L345.24 42.9176L479.919 140.834L428.89 298.711L262.674 298.369Z" fill="#B20000" stroke="#B20000" stroke-width="38.9647" stroke-linejoin="round"/>
<path d="M262.268 286.381L210.568 128.292L345.304 30.7793L480.275 128.602L428.957 286.572L262.268 286.381Z" fill="black" stroke="black" stroke-width="38.9647" stroke-linejoin="round"/>
<path d="M68.3736 515.81L87.2708 348.146L250.263 315.374L332.1 462.784L219.687 586.66L68.3736 515.81Z" fill="black" stroke="black" stroke-width="39.2358" stroke-linejoin="round"/>
<path d="M618.427 515.578L599.53 347.913L436.538 315.141L354.7 462.551L467.114 586.428L618.427 515.578Z" fill="black" stroke="black" stroke-width="39.2358" stroke-linejoin="round"/>
<path d="M297.001 474V926.678C298.062 927.4 299.127 928.114 300.198 928.818C302.335 930.223 304.507 931.559 306.662 932.93C316.773 939.222 327.248 944.68 337.753 950.034C340.877 951.627 339.479 955.252 336.354 953.66C325.757 948.258 315.19 942.749 304.99 936.399C302.807 935.01 300.607 933.655 298.441 932.23C297.959 931.915 297.482 931.586 297.001 931.265V959.011C298.329 960.075 299.642 961.164 301.019 962.141C306.138 965.772 312.135 968.919 317.911 970.851C323.888 972.85 326.896 973.145 333.099 974.255C340.376 975.303 347.705 975.682 355.03 975.908C356.721 975.954 358.413 975.991 360.105 976.014C360.939 976.023 362.231 975.181 362.61 976.033C362.875 976.636 362.749 977.295 362.524 977.968C362.746 978.682 362.878 979.382 362.58 980C362.207 980.778 361.118 980.155 360.285 980.019C351.079 980.241 341.915 981.688 332.86 983.544C329.82 984.166 326.784 984.831 323.772 985.616C321.215 986.282 318.696 987.137 316.159 987.898C318.762 983.893 309.709 990.529 311.259 992.027C311.813 992.559 312.723 991.869 313.432 992.036C315.313 992.484 317.097 993.387 318.973 993.865C325.36 995.49 330.492 996.043 337.024 996.992C340.083 997.353 343.143 997.715 346.202 998.078C349.602 998.479 349.249 1002.43 345.848 1002.02C342.762 1001.66 339.675 1001.29 336.59 1000.93C330.977 1000.11 323.507 999.223 317.943 997.65C315.655 997.003 313.193 996.599 311.234 995.093C307.848 992.493 307.009 989.46 310.205 986.7C311.693 985.416 313.593 984.936 315.288 984.054C317.892 983.278 320.477 982.405 323.101 981.722C326.156 980.929 329.233 980.253 332.316 979.622C333.891 979.301 335.474 979.017 337.055 978.726C335.557 978.559 334.059 978.389 332.565 978.171C326.03 976.991 323.058 976.71 316.752 974.584C310.695 972.543 304.435 969.233 299.071 965.412C298.365 964.91 297.682 964.368 297 963.825V1234H391V474.001L297.001 474Z" fill="black" stroke="black" stroke-width="13.2423"/>
</svg>
